<?xml version="1.0" standalone="no"?>
<!DOCTYPE svg PUBLIC "-//W3C//DTD SVG 20010904//EN"
 "http://www.w3.org/TR/2001/REC-SVG-20010904/DTD/svg10.dtd">
<svg version="1.0" xmlns="http://www.w3.org/2000/svg"
 width="100.000000pt" height="100.000000pt" viewBox="0 0 100.000000 100.000000"
 preserveAspectRatio="xMidYMid meet">
<metadata>
Created by potrace 1.11, written by Peter Selinger 2001-2013
</metadata>
<g transform="translate(0.000000,100.000000) scale(0.100000,-0.100000)"
fill="#000000" stroke="none">
<path d="M590 844 c-124 -75 -227 -138 -229 -139 -9 -9 12 -25 22 -17 7 5 50
29 97 55 l86 46 71 -24 c68 -23 103 -24 103 -4 0 5 -1 9 -2 9 -2 0 -29 11 -61
24 l-57 23 110 59 c60 32 112 65 115 72 6 17 -2 32 -18 32 -7 0 -113 -61 -237
-136z"/>
<path d="M388 851 c-1 -5 -32 -12 -68 -16 -35 -4 -74 -11 -86 -15 -12 -5 -31
-6 -42 -3 -13 3 -36 -8 -66 -31 -26 -19 -53 -39 -60 -43 -8 -5 -25 -26 -40
-47 l-26 -39 0 -230 c0 -261 2 -271 80 -317 23 -14 50 -32 60 -41 9 -9 41 -19
71 -22 30 -4 79 -9 109 -13 30 -3 59 -10 64 -15 13 -12 49 -12 62 0 8 8 28 11
174 28 30 3 62 12 70 20 8 7 37 28 65 46 76 49 78 58 78 307 1 118 -2 227 -6
242 -7 26 -5 28 60 48 60 19 82 32 83 51 0 16 -33 18 -68 4 -20 -7 -109 -39
-197 -70 -88 -31 -169 -60 -180 -65 -11 -5 -37 -14 -57 -21 -44 -15 -51 -34
-10 -26 15 4 93 26 174 50 159 48 158 48 158 -16 0 -45 -68 -106 -150 -134
-88 -30 -119 -35 -230 -35 -239 0 -414 108 -355 218 38 71 164 123 315 131 75
4 99 9 115 24 19 19 19 19 -7 19 -15 0 -30 5 -33 10 -8 12 -52 13 -57 1z
m-266 -381 l37 -20 0 -165 c1 -115 -3 -165 -11 -165 -19 0 -75 39 -92 65 -13
20 -16 54 -16 181 l0 156 23 -16 c12 -9 39 -25 59 -36z m672 -105 c-1 -126 -5
-160 -18 -180 -17 -26 -72 -65 -91 -65 -7 0 -10 58 -9 163 2 191 1 177 18 177
7 0 31 13 52 29 21 16 41 30 44 30 3 1 4 -69 4 -154z m-471 49 c58 -6 68 -10
72 -28 2 -12 3 -86 2 -166 l-2 -145 -33 -3 c-52 -5 -141 17 -152 38 -6 10 -10
87 -10 171 l0 151 28 -6 c15 -3 57 -9 95 -12z m311 -138 c0 -108 -4 -159 -13
-170 -24 -29 -180 -49 -182 -23 -1 16 -1 242 0 288 1 34 2 35 44 37 50 3 100
11 106 18 2 2 14 4 25 4 20 0 21 -4 20 -154z"/>
</g>
</svg>
